HIERARCHY
ROOT Hips
{
  OFFSET 25.363 24.227 -258.902
  CHANNELS 6 Xposition Yposition Zposition Zrotation Xrotation Yrotation
  JOINT LeftUpLeg
  {
    OFFSET 7.795 -7.360 2.390
    CHANNELS 6 Xposition Yposition Zposition Zrotation Xrotation Yrotation
    JOINT LeftLeg
    {
      OFFSET -0.000 -47.223 0.000
      CHANNELS 6 Xposition Yposition Zposition Zrotation Xrotation Yrotation
      JOINT LeftFoot
      {
        OFFSET -0.000 -39.666 -0.000
        CHANNELS 6 Xposition Yposition Zposition Zrotation Xrotation Yrotation
        End Site
        {
          OFFSET 0.000 -8.995 5.193
        }
      }
    }
  }
  JOINT RightUpLeg
  {
    OFFSET -7.594 -7.007 2.628
    CHANNELS 6 Xposition Yposition Zposition Zrotation Xrotation Yrotation
    JOINT RightLeg
    {
      OFFSET -0.000 -45.584 0.000
      CHANNELS 6 Xposition Yposition Zposition Zrotation Xrotation Yrotation
      JOINT RightFoot
      {
        OFFSET -0.000 -42.184 -0.000
        CHANNELS 6 Xposition Yposition Zposition Zrotation Xrotation Yrotation
        End Site
        {
          OFFSET -0.000 -8.636 4.986
        }
      }
    }
  }
  JOINT Spine
  {
    OFFSET 0.000 5.589 -5.589
    CHANNELS 6 Xposition Yposition Zposition Zrotation Xrotation Yrotation
    JOINT LeftShoulder
    {
      OFFSET -0.000 38.433 0.000
      CHANNELS 6 Xposition Yposition Zposition Zrotation Xrotation Yrotation
      JOINT LeftArm
      {
        OFFSET 22.742 0.000 -0.000
        CHANNELS 6 Xposition Yposition Zposition Zrotation Xrotation Yrotation
        JOINT LeftForeArm
        {
          OFFSET 26.022 0.000 0.000
          CHANNELS 6 Xposition Yposition Zposition Zrotation Xrotation Yrotation
          JOINT LeftHand
          {
            OFFSET 26.681 0.000 -0.000
            CHANNELS 6 Xposition Yposition Zposition Zrotation Xrotation Yrotation
            JOINT LeftHandThumb1
            {
            OFFSET 4.970 -0.620 3.390
            CHANNELS 6 Xposition Yposition Zposition Zrotation Xrotation Yrotation
              JOINT LeftHandThumb2
              {
              OFFSET 2.150 -0.000 0.000
              CHANNELS 6 Xposition Yposition Zposition Zrotation Xrotation Yrotation
                JOINT LeftHandThumb3
                {
                OFFSET 2.200 -0.000 0.000
                CHANNELS 6 Xposition Yposition Zposition Zrotation Xrotation Yrotation
                  JOINT LeftHandThumb4
                  {
                  OFFSET 1.700 -0.000 0.000
                  CHANNELS 6 Xposition Yposition Zposition Zrotation Xrotation Yrotation
                  }
                }
              }
            }
            JOINT LeftHandIndex1
            {
            OFFSET 8.730 0.680 2.070
            CHANNELS 6 Xposition Yposition Zposition Zrotation Xrotation Yrotation
              JOINT LeftHandIndex2
              {
              OFFSET 2.670 -0.000 0.000
              CHANNELS 6 Xposition Yposition Zposition Zrotation Xrotation Yrotation
                JOINT LeftHandIndex3
                {
                OFFSET 2.130 -0.000 0.000
                CHANNELS 6 Xposition Yposition Zposition Zrotation Xrotation Yrotation
                  JOINT LeftHandIndex4
                  {
                  OFFSET 1.800 -0.000 0.000
                  CHANNELS 6 Xposition Yposition Zposition Zrotation Xrotation Yrotation
                  }
                }
              }
            }
            JOINT LeftHandMiddle1
            {
            OFFSET 9.220 0.670 0.550
            CHANNELS 6 Xposition Yposition Zposition Zrotation Xrotation Yrotation
              JOINT LeftHandMiddle2
              {
              OFFSET 2.660 -0.000 0.000
              CHANNELS 6 Xposition Yposition Zposition Zrotation Xrotation Yrotation
                JOINT LeftHandMiddle3
                {
                OFFSET 2.280 -0.000 0.000
                CHANNELS 6 Xposition Yposition Zposition Zrotation Xrotation Yrotation
                  JOINT LeftHandMiddle4
                  {
                  OFFSET 1.500 -0.000 0.000
                  CHANNELS 6 Xposition Yposition Zposition Zrotation Xrotation Yrotation
                  }
                }
              }
            }
            JOINT LeftHandRing1
            {
            OFFSET 9.250 0.670 -1.130
            CHANNELS 6 Xposition Yposition Zposition Zrotation Xrotation Yrotation
              JOINT LeftHandRing2
              {
              OFFSET 2.470 -0.000 0.000
              CHANNELS 6 Xposition Yposition Zposition Zrotation Xrotation Yrotation
                JOINT LeftHandRing3
                {
                OFFSET 2.210 -0.000 0.000
                CHANNELS 6 Xposition Yposition Zposition Zrotation Xrotation Yrotation
                  JOINT LeftHandRing4
                  {
                  OFFSET 1.800 -0.000 0.000
                  CHANNELS 6 Xposition Yposition Zposition Zrotation Xrotation Yrotation
                  }
                }
              }
            }
            JOINT LeftHandPinky1
            {
            OFFSET 9.350 0.660 -2.720
            CHANNELS 6 Xposition Yposition Zposition Zrotation Xrotation Yrotation
              JOINT LeftHandPinky2
              {
              OFFSET 1.630 -0.000 0.000
              CHANNELS 6 Xposition Yposition Zposition Zrotation Xrotation Yrotation
                JOINT LeftHandPinky3
                {
                OFFSET 1.710 -0.000 0.000
                CHANNELS 6 Xposition Yposition Zposition Zrotation Xrotation Yrotation
                  JOINT LeftHandPinky4
                  {
                  OFFSET 1.800 -0.000 0.000
                  CHANNELS 6 Xposition Yposition Zposition Zrotation Xrotation Yrotation
                  }
                }
              }
            }
          }
        }
      }
    }
    JOINT RightShoulder
    {
      OFFSET -0.000 38.433 0.000
      CHANNELS 6 Xposition Yposition Zposition Zrotation Xrotation Yrotation
      JOINT RightArm
      {
        OFFSET -22.229 0.000 -0.000
        CHANNELS 6 Xposition Yposition Zposition Zrotation Xrotation Yrotation
        JOINT RightForeArm
        {
          OFFSET -27.487 0.000 0.000
          CHANNELS 6 Xposition Yposition Zposition Zrotation Xrotation Yrotation
          JOINT RightHand
          {
            OFFSET -26.308 0.000 -0.000
            CHANNELS 6 Xposition Yposition Zposition Zrotation Xrotation Yrotation
            JOINT RightHandThumb1
            {
            OFFSET -4.970 -0.620 3.390
            CHANNELS 6 Xposition Yposition Zposition Zrotation Xrotation Yrotation
              JOINT RightHandThumb2
              {
              OFFSET -2.150 0.000 0.000
              CHANNELS 6 Xposition Yposition Zposition Zrotation Xrotation Yrotation
                JOINT RightHandThumb3
                {
                OFFSET -2.200 0.000 0.000
                CHANNELS 6 Xposition Yposition Zposition Zrotation Xrotation Yrotation
                  JOINT RightHandThumb4
                  {
                  OFFSET -1.700 0.000 0.000
                  CHANNELS 6 Xposition Yposition Zposition Zrotation Xrotation Yrotation
                  }
                }
              }
            }
            JOINT RightHandIndex1
            {
            OFFSET -8.730 0.680 2.070
            CHANNELS 6 Xposition Yposition Zposition Zrotation Xrotation Yrotation
              JOINT RightHandIndex2
              {
              OFFSET -2.670 0.000 0.000
              CHANNELS 6 Xposition Yposition Zposition Zrotation Xrotation Yrotation
                JOINT RightHandIndex3
                {
                OFFSET -2.130 0.000 0.000
                CHANNELS 6 Xposition Yposition Zposition Zrotation Xrotation Yrotation
                  JOINT RightHandIndex4
                  {
                  OFFSET -1.800 0.000 0.000
                  CHANNELS 6 Xposition Yposition Zposition Zrotation Xrotation Yrotation
                  }
                }
              }
            }
            JOINT RightHandMiddle1
            {
            OFFSET -9.220 0.670 0.550
            CHANNELS 6 Xposition Yposition Zposition Zrotation Xrotation Yrotation
              JOINT RightHandMiddle2
              {
              OFFSET -2.660 0.000 0.000
              CHANNELS 6 Xposition Yposition Zposition Zrotation Xrotation Yrotation
                JOINT RightHandMiddle3
                {
                OFFSET -2.280 0.000 0.000
                CHANNELS 6 Xposition Yposition Zposition Zrotation Xrotation Yrotation
                  JOINT RightHandMiddle4
                  {
                  OFFSET -1.500 0.000 0.000
                  CHANNELS 6 Xposition Yposition Zposition Zrotation Xrotation Yrotation
                  }
                }
              }
            }
            JOINT RightHandRing1
            {
            OFFSET -9.250 0.670 -1.130
            CHANNELS 6 Xposition Yposition Zposition Zrotation Xrotation Yrotation
              JOINT RightHandRing2
              {
              OFFSET -2.470 0.000 0.000
              CHANNELS 6 Xposition Yposition Zposition Zrotation Xrotation Yrotation
                JOINT RightHandRing3
                {
                OFFSET -2.210 0.000 0.000
                CHANNELS 6 Xposition Yposition Zposition Zrotation Xrotation Yrotation
                  JOINT RightHandRing4
                  {
                  OFFSET -1.800 0.000 0.000
                  CHANNELS 6 Xposition Yposition Zposition Zrotation Xrotation Yrotation
                  }
                }
              }
            }
            JOINT RightHandPinky1
            {
            OFFSET -9.350 0.660 -2.720
            CHANNELS 6 Xposition Yposition Zposition Zrotation Xrotation Yrotation
              JOINT RightHandPinky2
              {
              OFFSET -1.630 0.000 0.000
              CHANNELS 6 Xposition Yposition Zposition Zrotation Xrotation Yrotation
                JOINT RightHandPinky3
                {
                OFFSET -1.710 0.000 0.000
                CHANNELS 6 Xposition Yposition Zposition Zrotation Xrotation Yrotation
                  JOINT RightHandPinky4
                  {
                  OFFSET -1.800 0.000 0.000
                  CHANNELS 6 Xposition Yposition Zposition Zrotation Xrotation Yrotation
                  }
                }
              }
            }
          }
        }
      }
    }
    JOINT Neck
    {
      OFFSET -0.000 38.433 0.000
      CHANNELS 6 Xposition Yposition Zposition Zrotation Xrotation Yrotation
      JOINT Head
      {
        OFFSET -0.000 16.444 -0.000
        CHANNELS 6 Xposition Yposition Zposition Zrotation Xrotation Yrotation
        End Site
        {
          OFFSET -0.000 0.066 -0.000
        }
      }
    }
  }
}
MOTION
Frames:	5
Frame Time:	0.0333333
22.6356 24.0069 -269.304 0.093721 1.13185 -5.30191 7.72888 -7.63503 2.17123 5.66878 7.4375 -2.77585 -4.47035e-06 -49.3265 7.15256e-05 -5.40493 -6.05731 -0.572027 8.3819e-06 -38.4699 -2.38419e-05 4.88419 -6.57811 3.35011 -7.71284 -7.58858 1.6253 -1.77902 5.80579 -1.85303 7.45058e-06 -49.8012 2.38419e-05 5.63552 -3.20808 0.316396 -1.19209e-05 -37.8048 -7.15256e-05 -1.16225 -8.54309 -0.877693 -2.04891e-06 6.23396 -6.234 0.00605484 -5.13075 0.507133 -1.43191e-06 38.4325 7.15256e-05 -36.0435 9.685e-06 -1.27776 21.5811 2.38419e-05 -2.38419e-05 -40.4039 31.1683 -0.936501 27.2296 2.38419e-05 -2.38419e-05 1.2362e-06 -5.12264e-06 -26.8285 26.3197 -1.19209e-05 1.19209e-05 -9.69352 -0.00106555 3.85541 0.0062 0.0497 0.0339 0 0 0 0 0.0215 0 0 0 0 0 0.022 0 0 0 0 0 0.017 0 0 0 0 -0.0068 0.0873 0.0207 0 0 0 0 0.0267 0 0 0 0 0 0.0213 0 0 0 0 0 0.018 0 0 0 0 -0.0067 0.0922 0.0055 0 0 0 0 0.0266 0 0 0 0 0 0.0228 0 0 0 0 0 0.015 0 0 0 0 -0.0067 0.0925 -0.0113 0 0 0 0 0.0247 0 0 0 0 0 0.0221 0 0 0 0 0 0.018 0 0 0 0 -0.0066 0.0935 -0.0272 0 0 0 0 0.0163 0 0 0 0 0 0.0171 0 0 0 0 0 0.018 0 0 0 0 -1.43191e-06 38.4325 7.15256e-05 37.0213 -3.4151e-06 1.27106 -21.6948 5.96046e-06 -4.76837e-05 43.301 -1.19881 0.993966 -28.6045 1.19209e-05 2.38419e-05 6.53859 1.92363 16.3233 -25.2324 -2.98023e-06 2.38419e-05 5.50171 -0.0534173 -4.87431 -0.0062 0.0497 0.0339 0 0 0 0 0.0215 0 0 0 0 0 0.022 0 0 0 0 0 0.017 0 0 0 0 0.0068 0.0873 0.0207 0 0 0 0 0.0267 0 0 0 0 0 0.0213 0 0 0 0 0 0.018 0 0 0 0 0.0067 0.0922 0.0055 0 0 0 0 0.0266 0 0 0 0 0 0.0228 0 0 0 0 0 0.015 0 0 0 0 0.0067 0.0925 -0.0113 0 0 0 0 0.0247 0 0 0 0 0 0.0221 0 0 0 0 0 0.018 0 0 0 0 0.0066 0.0935 -0.0272 0 0 0 0 0.0163 0 0 0 0 0 0.0171 0 0 0 0 0 0.018 0 0 0 0 -1.43191e-06 38.4325 7.15256e-05 1.3605 11.8037 -0.278349 -7.63685e-06 18.6129 -2.38419e-05 9.8184e-06 -9.39151e-06 1.28066e-06 
22.6356 24.0069 -269.304 0.093721 1.13185 -5.30191 7.72888 -7.63503 2.17123 5.66878 7.4375 -2.77585 -4.47035e-06 -49.3265 7.15256e-05 -5.40493 -6.05731 -0.572027 8.3819e-06 -38.4699 -2.38419e-05 4.88419 -6.57811 3.35011 -7.71284 -7.58858 1.6253 -1.77902 5.80579 -1.85303 7.45058e-06 -49.8012 2.38419e-05 5.63552 -3.20808 0.316396 -1.19209e-05 -37.8048 -7.15256e-05 -1.16225 -8.54309 -0.877693 -2.04891e-06 6.23396 -6.234 0.00605484 -5.13075 0.507133 -1.43191e-06 38.4325 7.15256e-05 -36.0435 9.685e-06 -1.27776 21.5811 2.38419e-05 -2.38419e-05 -40.4039 31.1683 -0.936501 27.2296 2.38419e-05 -2.38419e-05 1.2362e-06 -5.12264e-06 -26.8285 26.3197 -1.19209e-05 1.19209e-05 -9.69352 -0.00106555 3.85541 0.0062 0.0497 0.0339 0 0 0 0 0.0215 0 0 0 0 0 0.022 0 0 0 0 0 0.017 0 0 0 0 -0.0068 0.0873 0.0207 0 0 0 0 0.0267 0 0 0 0 0 0.0213 0 0 0 0 0 0.018 0 0 0 0 -0.0067 0.0922 0.0055 0 0 0 0 0.0266 0 0 0 0 0 0.0228 0 0 0 0 0 0.015 0 0 0 0 -0.0067 0.0925 -0.0113 0 0 0 0 0.0247 0 0 0 0 0 0.0221 0 0 0 0 0 0.018 0 0 0 0 -0.0066 0.0935 -0.0272 0 0 0 0 0.0163 0 0 0 0 0 0.0171 0 0 0 0 0 0.018 0 0 0 0 -1.43191e-06 38.4325 7.15256e-05 37.0213 -3.4151e-06 1.27106 -21.6948 5.96046e-06 -4.76837e-05 43.301 -1.19881 0.993966 -28.6045 1.19209e-05 2.38419e-05 6.53859 1.92363 16.3233 -25.2324 -2.98023e-06 2.38419e-05 5.50171 -0.0534173 -4.87431 -0.0062 0.0497 0.0339 0 0 0 0 0.0215 0 0 0 0 0 0.022 0 0 0 0 0 0.017 0 0 0 0 0.0068 0.0873 0.0207 0 0 0 0 0.0267 0 0 0 0 0 0.0213 0 0 0 0 0 0.018 0 0 0 0 0.0067 0.0922 0.0055 0 0 0 0 0.0266 0 0 0 0 0 0.0228 0 0 0 0 0 0.015 0 0 0 0 0.0067 0.0925 -0.0113 0 0 0 0 0.0247 0 0 0 0 0 0.0221 0 0 0 0 0 0.018 0 0 0 0 0.0066 0.0935 -0.0272 0 0 0 0 0.0163 0 0 0 0 0 0.0171 0 0 0 0 0 0.018 0 0 0 0 -1.43191e-06 38.4325 7.15256e-05 1.3605 11.8037 -0.278349 -7.63685e-06 18.6129 -2.38419e-05 9.8184e-06 -9.39151e-06 1.28066e-06 
22.1843 23.9884 -269.064 0.266008 1.17383 -5.00201 7.7417 -7.63586 2.21269 5.68866 7.20417 -3.08754 -5.21541e-06 -49.2779 -2.38419e-05 -5.27349 -5.53883 -0.510428 -3.53903e-06 -38.5349 0 4.91902 -6.06648 3.33898 -7.73047 -7.59781 1.57447 -1.83438 5.9687 -2.17442 1.49012e-06 -49.7402 0 5.98352 -3.22771 0.338127 5.96046e-06 -37.8497 -2.38419e-05 -0.89058 -8.57807 -0.675896 -1.86265e-07 6.22935 -6.22931 0.0234074 -5.08733 0.461487 1.86265e-07 38.4326 2.38419e-05 -36.0542 1.18461e-05 -1.17192 21.593 -1.78814e-05 4.76837e-05 -40.5322 31.7336 -0.750206 27.2244 2.38419e-05 -4.76837e-05 -1.33858e-05 0 -26.7535 26.1964 -1.19209e-05 1.19209e-05 -9.28136 -0.00359956 3.90657 0.0062 0.0497 0.0339 0 0 0 0 0.0215 0 0 0 0 0 0.022 0 0 0 0 0 0.017 0 0 0 0 -0.0068 0.0873 0.0207 0 0 0 0 0.0267 0 0 0 0 0 0.0213 0 0 0 0 0 0.018 0 0 0 0 -0.0067 0.0922 0.0055 0 0 0 0 0.0266 0 0 0 0 0 0.0228 0 0 0 0 0 0.015 0 0 0 0 -0.0067 0.0925 -0.0113 0 0 0 0 0.0247 0 0 0 0 0 0.0221 0 0 0 0 0 0.018 0 0 0 0 -0.0066 0.0935 -0.0272 0 0 0 0 0.0163 0 0 0 0 0 0.0171 0 0 0 0 0 0.018 0 0 0 0 1.86265e-07 38.4326 2.38419e-05 36.9472 -5.12264e-06 1.16753 -21.6739 -1.78814e-05 0 43.4348 -1.08837 0.838658 -28.5248 1.49012e-05 2.38419e-05 6.2398 1.8725 16.6387 -25.3567 -1.49012e-06 0 5.69367 -0.0367293 -4.94301 -0.0062 0.0497 0.0339 0 0 0 0 0.0215 0 0 0 0 0 0.022 0 0 0 0 0 0.017 0 0 0 0 0.0068 0.0873 0.0207 0 0 0 0 0.0267 0 0 0 0 0 0.0213 0 0 0 0 0 0.018 0 0 0 0 0.0067 0.0922 0.0055 0 0 0 0 0.0266 0 0 0 0 0 0.0228 0 0 0 0 0 0.015 0 0 0 0 0.0067 0.0925 -0.0113 0 0 0 0 0.0247 0 0 0 0 0 0.0221 0 0 0 0 0 0.018 0 0 0 0 0.0066 0.0935 -0.0272 0 0 0 0 0.0163 0 0 0 0 0 0.0171 0 0 0 0 0 0.018 0 0 0 0 1.86265e-07 38.4326 2.38419e-05 1.02708 11.8859 -0.211562 -4.84288e-06 18.6377 -2.38419e-05 9.81839e-06 -9.39151e-06 -4.26887e-07 
22.1843 23.9884 -269.064 0.266008 1.17383 -5.00201 7.7417 -7.63586 2.21269 5.68866 7.20417 -3.08754 -5.21541e-06 -49.2779 -2.38419e-05 -5.27349 -5.53883 -0.510428 -3.53903e-06 -38.5349 0 4.91902 -6.06648 3.33898 -7.73047 -7.59781 1.57447 -1.83438 5.9687 -2.17442 1.49012e-06 -49.7402 0 5.98352 -3.22771 0.338127 5.96046e-06 -37.8497 -2.38419e-05 -0.89058 -8.57807 -0.675896 -1.86265e-07 6.22935 -6.22931 0.0234074 -5.08733 0.461487 1.86265e-07 38.4326 2.38419e-05 -36.0542 1.18461e-05 -1.17192 21.593 -1.78814e-05 4.76837e-05 -40.5322 31.7336 -0.750206 27.2244 2.38419e-05 -4.76837e-05 -1.33858e-05 0 -26.7535 26.1964 -1.19209e-05 1.19209e-05 -9.28136 -0.00359956 3.90657 0.0062 0.0497 0.0339 0 0 0 0 0.0215 0 0 0 0 0 0.022 0 0 0 0 0 0.017 0 0 0 0 -0.0068 0.0873 0.0207 0 0 0 0 0.0267 0 0 0 0 0 0.0213 0 0 0 0 0 0.018 0 0 0 0 -0.0067 0.0922 0.0055 0 0 0 0 0.0266 0 0 0 0 0 0.0228 0 0 0 0 0 0.015 0 0 0 0 -0.0067 0.0925 -0.0113 0 0 0 0 0.0247 0 0 0 0 0 0.0221 0 0 0 0 0 0.018 0 0 0 0 -0.0066 0.0935 -0.0272 0 0 0 0 0.0163 0 0 0 0 0 0.0171 0 0 0 0 0 0.018 0 0 0 0 1.86265e-07 38.4326 2.38419e-05 36.9472 -5.12264e-06 1.16753 -21.6739 -1.78814e-05 0 43.4348 -1.08837 0.838658 -28.5248 1.49012e-05 2.38419e-05 6.2398 1.8725 16.6387 -25.3567 -1.49012e-06 0 5.69367 -0.0367293 -4.94301 -0.0062 0.0497 0.0339 0 0 0 0 0.0215 0 0 0 0 0 0.022 0 0 0 0 0 0.017 0 0 0 0 0.0068 0.0873 0.0207 0 0 0 0 0.0267 0 0 0 0 0 0.0213 0 0 0 0 0 0.018 0 0 0 0 0.0067 0.0922 0.0055 0 0 0 0 0.0266 0 0 0 0 0 0.0228 0 0 0 0 0 0.015 0 0 0 0 0.0067 0.0925 -0.0113 0 0 0 0 0.0247 0 0 0 0 0 0.0221 0 0 0 0 0 0.018 0 0 0 0 0.0066 0.0935 -0.0272 0 0 0 0 0.0163 0 0 0 0 0 0.0171 0 0 0 0 0 0.018 0 0 0 0 1.86265e-07 38.4326 2.38419e-05 1.02708 11.8859 -0.211562 -4.84288e-06 18.6377 -2.38419e-05 9.81839e-06 -9.39151e-06 -4.26887e-07 
22.0154 23.9719 -268.964 0.333486 1.2225 -4.82933 7.75045 -7.63119 2.22659 5.66865 6.90288 -3.14927 -5.96046e-06 -49.2376 0 -5.19943 -4.94669 -0.449566 1.11759e-05 -38.5272 0 4.9305 -5.90608 3.33591 -7.74354 -7.60328 1.56088 -1.84771 6.02121 -2.2651 1.49012e-06 -49.6998 2.38419e-05 6.10813 -3.25999 0.348669 7.45058e-06 -37.8747 -9.53674e-05 -0.799791 -8.62787 -0.607743 1.81608e-06 6.22798 -6.22799 0.0203448 -5.06135 0.449629 -3.53903e-06 38.4326 4.76837e-05 -36.028 1.286e-05 -1.08807 21.591 -2.38419e-05 0 -40.5803 32.168 -0.735313 27.2494 1.19209e-05 0 3.8246e-06 1.53679e-05 -26.4286 26.1546 1.19209e-05 0 -9.05816 -0.00803569 4.04454 0.0062 0.0497 0.0339 0 0 0 0 0.0215 0 0 0 0 0 0.022 0 0 0 0 0 0.017 0 0 0 0 -0.0068 0.0873 0.0207 0 0 0 0 0.0267 0 0 0 0 0 0.0213 0 0 0 0 0 0.018 0 0 0 0 -0.0067 0.0922 0.0055 0 0 0 0 0.0266 0 0 0 0 0 0.0228 0 0 0 0 0 0.015 0 0 0 0 -0.0067 0.0925 -0.0113 0 0 0 0 0.0247 0 0 0 0 0 0.0221 0 0 0 0 0 0.018 0 0 0 0 -0.0066 0.0935 -0.0272 0 0 0 0 0.0163 0 0 0 0 0 0.0171 0 0 0 0 0 0.018 0 0 0 0 -3.53903e-06 38.4326 4.76837e-05 36.9049 -3.84198e-06 1.08416 -21.6688 0 -2.38419e-05 43.4772 -1.0182 0.820337 -28.4713 0 -4.76837e-05 6.24908 1.90321 16.8722 -25.4 0 2.38419e-05 5.78859 -0.0311509 -4.96694 -0.0062 0.0497 0.0339 0 0 0 0 0.0215 0 0 0 0 0 0.022 0 0 0 0 0 0.017 0 0 0 0 0.0068 0.0873 0.0207 0 0 0 0 0.0267 0 0 0 0 0 0.0213 0 0 0 0 0 0.018 0 0 0 0 0.0067 0.0922 0.0055 0 0 0 0 0.0266 0 0 0 0 0 0.0228 0 0 0 0 0 0.015 0 0 0 0 0.0067 0.0925 -0.0113 0 0 0 0 0.0247 0 0 0 0 0 0.0221 0 0 0 0 0 0.018 0 0 0 0 0.0066 0.0935 -0.0272 0 0 0 0 0.0163 0 0 0 0 0 0.0171 0 0 0 0 0 0.018 0 0 0 0 -3.53903e-06 38.4326 4.76837e-05 0.877886 11.8764 -0.180685 -6.51926e-06 18.6384 -4.76837e-05 9.81839e-06 -1.19528e-05 8.53773e-07 
